<svg width="400" height="400" viewBox="0 0 400 400" fill="none" xmlns="http://www.w3.org/2000/svg">
<path d="M307.555 296.487C301.113 303.119 293.981 309.199 286.389 314.505C258.436 293.391 236.12 265.866 221.626 234.14C217.83 225.739 214.494 217.006 211.848 208.163C207.477 193.571 204.831 178.316 203.911 162.509C203.681 158.75 203.566 154.881 203.566 151.012C203.566 127.467 207.592 104.805 215.184 83.8022C217.945 75.9536 221.281 68.2156 224.962 60.8093C230.138 61.6936 235.2 62.799 240.146 64.1256C244.287 65.231 248.314 66.5575 252.34 67.9945C248.544 75.0693 245.208 82.3651 242.447 89.882C235.315 109.006 231.404 129.677 231.404 151.123C231.404 155.434 231.519 159.745 231.864 163.946C232.899 177.764 235.43 191.25 239.571 203.962C251.534 241.436 275.691 273.715 307.555 296.487Z" fill="white"/>
<path d="M168.597 289.854C179.755 308.425 193.099 325.67 208.168 341.257C205.407 341.367 202.646 341.478 199.885 341.478C170.667 341.478 143.52 333.297 120.628 319.259C137.883 311.078 153.988 301.24 168.597 289.854Z" fill="white"/>
<path d="M334.243 258.018C330.677 265.645 326.42 272.941 321.474 279.795C284.549 253.707 259.242 213.248 254.525 166.93C253.95 161.735 253.72 156.429 253.72 151.012C253.72 130.451 257.746 110.775 265.108 92.7562C267.294 87.3396 269.824 82.1441 272.585 77.0591C280.177 81.1492 287.309 86.0131 293.981 91.3191C284.779 109.338 279.487 129.677 279.487 151.123C279.487 194.677 300.883 233.367 334.243 258.018Z" fill="white"/>
<path d="M264.073 327.439C255.446 331.418 246.473 334.624 237.04 336.945C217.14 318.816 200.115 297.813 186.771 274.489C182.975 267.856 179.409 261.002 176.188 254.038C170.437 259.787 164.34 265.203 158.013 270.288C140.758 284.106 121.548 295.713 100.727 304.335C93.71 298.145 87.2682 291.291 81.6316 283.885C106.018 274.931 128.22 261.666 147.2 244.974C153.757 239.226 159.969 233.146 165.72 226.624C172.852 218.665 179.294 210.153 185.046 201.088C187.576 212.032 190.912 222.644 194.939 233.035C197.929 240.663 201.38 248.179 205.176 255.365C219.555 283.111 239.801 307.541 264.073 327.439Z" fill="white"/>
<path d="M137.882 96.2936C137.882 110.996 135.237 125.145 130.405 138.3C117.637 173.121 89.3388 200.978 53.5637 214.243C53.1036 209.6 52.8735 204.957 52.8735 200.204C52.8735 144.269 86.6931 95.962 135.697 73.0796C136.617 78.054 137.307 83.0284 137.652 88.1134C137.882 90.7664 137.882 93.53 137.882 96.2936Z" fill="white"/>
<path d="M190.222 96.2935C190.222 117.407 186.426 137.637 179.294 156.318C173.887 170.578 166.64 183.954 157.898 196.335C152.146 204.294 145.82 211.811 138.803 218.775C119.247 238.231 95.2053 253.375 68.0576 262.66C63.9165 254.591 60.5805 246.079 58.0498 237.346C88.0733 227.176 113.841 208.494 132.246 184.286C141.448 172.126 148.81 158.64 153.872 144.269C159.163 129.235 162.039 113.096 162.039 96.4041C162.039 93.751 161.924 91.2086 161.809 88.5555C161.349 80.3754 160.199 72.4163 158.473 64.5677C162.384 63.4623 166.41 62.4674 170.436 61.6936C175.613 60.6987 180.789 59.9249 186.081 59.4828C187.806 67.3313 188.957 75.2904 189.647 83.4706C189.992 87.6712 190.222 91.9823 190.222 96.2935Z" fill="white"/>
<path d="M347.127 200.093C347.127 212.032 345.516 223.749 342.64 234.804C318.599 214.353 303.414 184.396 303.414 151.012C303.414 135.978 306.52 121.608 312.157 108.564C333.898 133.215 347.127 165.162 347.127 200.093Z" fill="white"/>
</svg>
